<svg width="196" height="196" viewBox="0 0 196 196" fill="none" xmlns="http://www.w3.org/2000/svg">
<rect width="196" height="196" fill="white"/>
<path d="M63.424 94.856C67.456 94.856 70.016 94.504 71.104 93.8C72.704 92.776 73.76 91.88 74.272 91.112C74.976 89.768 75.712 88.424 76.48 87.08C79.296 79.72 82.144 73.352 85.024 67.976C86.24 65.736 87.904 63.048 90.016 59.912C92.384 56.456 94.016 54.632 94.912 54.44C95.104 54.696 95.2 55.112 95.2 55.688C95.2 56.968 93.824 61.288 91.072 68.648C90.24 70.952 89.152 74.504 87.808 79.304C87.616 79.944 86.56 85.48 84.64 95.912C83.936 99.688 83.584 107.368 83.584 118.952C83.584 121.832 84.224 124.904 85.504 128.168C87.04 132.072 89.024 134.248 91.456 134.696C89.472 137.832 86.848 139.4 83.584 139.4C74.496 139.4 69.952 132.008 69.952 117.224C69.952 111.464 70.56 106.664 71.776 102.824C71.904 102.44 71.968 102.12 71.968 101.864C71.968 101.736 71.936 101.64 71.872 101.576C70.464 102.792 68.416 104.168 65.728 105.704C64.064 106.152 61.6 107.496 58.336 109.736C55.904 111.4 53.824 113.224 52.096 115.208C51.264 117.064 49.984 119.4 48.256 122.216C46.144 125.672 44.8 127.944 44.224 129.032C39.168 138.44 35.872 142.952 34.336 142.568C34.144 142.312 34.048 141.896 34.048 141.32C34.048 140.04 35.424 135.72 38.176 128.36C39.008 126.056 40.096 122.504 41.44 117.704C41.632 117.064 42.688 111.528 44.608 101.096C45.312 97.32 45.664 89.64 45.664 78.056C45.664 75.176 45.024 72.104 43.744 68.84C42.208 64.936 40.224 62.76 37.792 62.312C39.776 59.176 42.4 57.608 45.664 57.608C54.752 57.608 59.296 65 59.296 79.784C59.296 83.624 58.848 87.304 57.952 90.824C57.952 92.552 58.464 93.704 59.488 94.28C60.192 94.664 61.504 94.856 63.424 94.856ZM137.06 116.936C137.06 115.08 134.116 112.328 128.228 108.68L111.716 98.312C105.828 94.024 102.884 90.248 102.884 86.984C102.884 80.392 108.676 75.144 120.26 71.24C129.028 68.296 137.54 66.824 145.796 66.824C154.884 66.824 159.428 67.976 159.428 70.28C159.428 70.92 158.98 71.56 158.084 72.2C157.252 72.776 156.452 73.128 155.684 73.256C147.364 74.92 141.444 76.328 137.924 77.48C128.708 80.488 124.1 83.848 124.1 87.56C124.1 89.672 127.332 92.776 133.796 96.872C137.892 99.368 143.972 103.144 152.036 108.2C158.564 112.488 161.828 116.264 161.828 119.528C161.828 123.816 157.732 127.592 149.54 130.856C144.228 132.968 138.244 134.6 131.588 135.752C126.66 136.584 120.452 137 112.964 137C101.7 137 96.0998 135.752 96.1638 133.256L96.2598 132.584C96.3878 131.816 97.2518 131.016 98.8518 130.184C99.8758 129.672 103.972 128.68 111.14 127.208C119.076 125.608 124.804 124.232 128.324 123.08C134.148 121.224 137.06 119.176 137.06 116.936Z" fill="#BB0101"/>
</svg>
