<svg width="126" height="37" viewBox="0 0 126 37" fill="none" xmlns="http://www.w3.org/2000/svg">
<path d="M9.808 13.952C11.152 13.952 12.0053 13.8347 12.368 13.6C12.9013 13.2587 13.2533 12.96 13.424 12.704C13.6587 12.256 13.904 11.808 14.16 11.36C15.0987 8.90667 16.048 6.784 17.008 4.992C17.4133 4.24533 17.968 3.34933 18.672 2.304C19.4613 1.152 20.0053 0.543999 20.304 0.48C20.368 0.565332 20.4 0.703998 20.4 0.895998C20.4 1.32267 19.9413 2.76267 19.024 5.216C18.7467 5.984 18.384 7.168 17.936 8.768C17.872 8.98133 17.52 10.8267 16.88 14.304C16.6453 15.5627 16.528 18.1227 16.528 21.984C16.528 22.944 16.7413 23.968 17.168 25.056C17.68 26.3573 18.3413 27.0827 19.152 27.232C18.4907 28.2773 17.616 28.8 16.528 28.8C13.4987 28.8 11.984 26.336 11.984 21.408C11.984 19.488 12.1867 17.888 12.592 16.608C12.6347 16.48 12.656 16.3733 12.656 16.288C12.656 16.2453 12.6453 16.2133 12.624 16.192C12.1547 16.5973 11.472 17.056 10.576 17.568C10.0213 17.7173 9.2 18.1653 8.112 18.912C7.30133 19.4667 6.608 20.0747 6.032 20.736C5.75467 21.3547 5.328 22.1333 4.752 23.072C4.048 24.224 3.6 24.9813 3.408 25.344C1.72267 28.48 0.624 29.984 0.112 29.856C0.048 29.7707 0.016 29.632 0.016 29.44C0.016 29.0133 0.474667 27.5733 1.392 25.12C1.66933 24.352 2.032 23.168 2.48 21.568C2.544 21.3547 2.896 19.5093 3.536 16.032C3.77067 14.7733 3.888 12.2133 3.888 8.352C3.888 7.392 3.67467 6.368 3.248 5.28C2.736 3.97867 2.07467 3.25333 1.264 3.104C1.92533 2.05867 2.8 1.536 3.888 1.536C6.91733 1.536 8.432 4 8.432 8.928C8.432 10.208 8.28267 11.4347 7.984 12.608C7.984 13.184 8.15467 13.568 8.496 13.76C8.73067 13.888 9.168 13.952 9.808 13.952ZM24.0205 7.392C24.0205 7.66933 23.9245 8.064 23.7325 8.576C23.5618 9.088 23.4765 9.45067 23.4765 9.664L23.5085 9.728L23.5405 9.76C23.7752 9.76 24.1805 9.568 24.7565 9.184C25.3325 8.8 25.7058 8.49067 25.8765 8.256C26.4738 7.46667 26.7725 6.61333 26.7725 5.696C26.7725 4.37333 26.1432 3.712 24.8845 3.712C24.6498 3.712 24.2445 3.76533 23.6685 3.872C23.0285 4 22.6872 4.11733 22.6445 4.224C23.1778 4.88533 23.5192 5.36533 23.6685 5.664C23.9032 6.13333 24.0205 6.70933 24.0205 7.392ZM21.3005 17.952C22.3458 14.304 24.1165 11.8827 26.6125 10.688C26.7405 10.7307 26.8045 10.88 26.8045 11.136C26.8045 11.584 26.6018 12.352 26.1965 13.44C25.6632 14.8907 25.3752 15.6907 25.3325 15.84C24.7992 17.888 24.5325 19.7227 24.5325 21.344C24.5325 21.7707 24.5645 22.1547 24.6285 22.496C24.7992 23.4133 25.1405 24.3307 25.6525 25.248C26.3138 26.4427 27.0392 27.104 27.8285 27.232C27.1672 28.1707 26.2925 28.64 25.2045 28.64C22.1965 28.64 20.6925 26.56 20.6925 22.4C20.6925 20.8427 20.8952 19.36 21.3005 17.952ZM30.4388 24.736C30.4388 22.176 30.8761 18.2507 31.7508 12.96C31.8788 12.9813 32.1241 13.5253 32.4868 14.592C32.8708 15.6373 33.2868 16.16 33.7348 16.16C34.0334 16.16 34.3854 15.9787 34.7908 15.616C35.2814 14.6987 36.1668 13.888 37.4468 13.184C38.5988 12.5653 39.7508 12.2027 40.9028 12.096C41.1374 12.0747 41.4361 12.064 41.7988 12.064C43.6974 12.064 45.2121 12.5013 46.3428 13.376C47.5801 14.336 48.1988 15.744 48.1988 17.6C48.1988 18.8587 47.9748 20.16 47.5268 21.504C47.0574 22.9547 46.4281 24.096 45.6388 24.928C45.3188 25.2693 44.9881 25.6 44.6468 25.92C44.3054 26.24 43.9534 26.496 43.5908 26.688C42.2468 27.4133 40.9134 27.776 39.5908 27.776C37.2441 27.776 36.0921 27.2427 36.1348 26.176L36.1667 25.952C36.8921 26.08 37.2228 26.144 37.1588 26.144C39.2494 26.144 40.9881 25.5253 42.3748 24.288C43.7828 23.0507 44.4868 21.3973 44.4868 19.328C44.4868 18.368 44.1561 17.5573 43.4948 16.896C42.8548 16.2347 42.0548 15.904 41.0948 15.904C36.8068 15.904 34.2681 19.84 33.4788 27.712C33.4148 27.7973 33.2654 29.3013 33.0308 32.224C32.7961 34.9547 32.4654 36.32 32.0388 36.32C31.5268 36.32 31.1108 34.784 30.7908 31.712C30.5561 29.3867 30.4388 27.0613 30.4388 24.736ZM60.2595 21.312C60.2595 20.6933 59.2782 19.776 57.3155 18.56L51.8115 15.104C49.8488 13.6747 48.8675 12.416 48.8675 11.328C48.8675 9.13067 50.7982 7.38133 54.6595 6.08C57.5822 5.09867 60.4195 4.608 63.1715 4.608C66.2008 4.608 67.7155 4.992 67.7155 5.76C67.7155 5.97333 67.5662 6.18667 67.2675 6.4C66.9902 6.592 66.7235 6.70933 66.4675 6.752C63.6942 7.30667 61.7208 7.776 60.5475 8.16C57.4755 9.16267 55.9395 10.2827 55.9395 11.52C55.9395 12.224 57.0168 13.2587 59.1715 14.624C60.5368 15.456 62.5635 16.7147 65.2515 18.4C67.4275 19.8293 68.5155 21.088 68.5155 22.176C68.5155 23.6053 67.1502 24.864 64.4195 25.952C62.6488 26.656 60.6542 27.2 58.4355 27.584C56.7928 27.8613 54.7235 28 52.2275 28C48.4728 28 46.6062 27.584 46.6275 26.752L46.6595 26.528C46.7022 26.272 46.9902 26.0053 47.5235 25.728C47.8648 25.5573 49.2302 25.2267 51.6195 24.736C54.2648 24.2027 56.1742 23.744 57.3475 23.36C59.2888 22.7413 60.2595 22.0587 60.2595 21.312ZM78.766 11.232C79.022 11.232 79.406 11.328 79.918 11.52C80.43 11.712 80.7927 11.8933 81.006 12.064C81.582 12.512 81.9553 12.8213 82.126 12.992C82.574 13.3973 82.894 13.7813 83.086 14.144C84.1527 16.1067 84.91 17.888 85.358 19.488C85.8273 21.1947 86.062 23.1147 86.062 25.248C86.062 27.04 85.8487 27.936 85.422 27.936C85.0807 27.936 84.8567 27.7227 84.75 27.296C84.7073 27.0613 84.6327 26.7093 84.526 26.24C83.95 23.5947 83.2673 21.568 82.478 20.16C81.2193 17.8987 79.5873 16.768 77.582 16.768C77.326 16.768 76.9633 16.8853 76.494 17.12C76.046 17.3547 75.7153 17.5787 75.502 17.792C74.7553 18.496 74.158 19.5413 73.71 20.928C73.5607 21.3973 73.2513 22.5813 72.782 24.48L72.526 26.496C72.398 27.52 72.206 28.032 71.95 28.032C71.502 28.032 71.1607 27.1253 70.926 25.312C70.9047 24.8853 70.8193 23.7227 70.67 21.824C70.6487 20.5867 70.6167 17.7493 70.574 13.312C70.5527 11.1573 70.7127 8.85333 71.054 6.4C71.502 3.22133 72.0247 1.65333 72.622 1.696C73.1553 1.71733 73.422 4.448 73.422 9.888C73.422 10.5707 73.422 11.1253 73.422 11.552C73.422 11.9573 73.422 12.2347 73.422 12.384C73.4007 12.5333 73.39 12.544 73.39 12.416C73.454 13.632 73.71 14.2293 74.158 14.208C75.1393 12.224 76.6753 11.232 78.766 11.232ZM103.66 14.56C103.66 14.7733 103.5 15.1893 103.18 15.808C102.86 16.4267 102.7 16.8427 102.7 17.056C102.359 17.0773 102.167 16.8533 102.124 16.384C102.081 15.6587 102.007 15.2107 101.9 15.04C101.665 14.528 101.132 14.272 100.3 14.272C98.0387 14.272 96.2147 14.8373 94.828 15.968C93.3133 17.184 92.556 18.8907 92.556 21.088C92.556 22.0693 92.876 22.8907 93.516 23.552C94.156 24.192 94.9667 24.512 95.948 24.512C97.2067 24.512 98.444 24.1707 99.66 23.488C100.876 22.784 101.825 21.888 102.508 20.8C102.572 20.6293 102.7 19.9787 102.892 18.848C103.105 17.696 103.564 16.736 104.268 15.968C104.631 15.584 104.908 15.392 105.1 15.392C105.271 15.392 105.356 15.5093 105.356 15.744C105.356 16.192 105.143 17.2373 104.716 18.88C104.012 21.5893 102.775 23.7653 101.004 25.408C99.0627 27.1787 96.7587 28.064 94.092 28.064C92.428 28.064 91.1373 27.6053 90.22 26.688C89.3027 25.7707 88.844 24.48 88.844 22.816C88.844 19.8507 89.836 17.3547 91.82 15.328C93.804 13.3013 96.2787 12.288 99.244 12.288C100.289 12.288 101.207 12.4267 101.996 12.704C103.105 13.088 103.66 13.7067 103.66 14.56ZM107.345 24.736C107.345 22.176 107.782 18.2507 108.657 12.96C108.785 12.9813 109.03 13.5253 109.393 14.592C109.777 15.6373 110.193 16.16 110.641 16.16C110.94 16.16 111.292 15.9787 111.697 15.616C112.188 14.6987 113.073 13.888 114.353 13.184C115.505 12.5653 116.657 12.2027 117.809 12.096C118.044 12.0747 118.342 12.064 118.705 12.064C120.604 12.064 122.118 12.5013 123.249 13.376C124.486 14.336 125.105 15.744 125.105 17.6C125.105 18.8587 124.881 20.16 124.433 21.504C123.964 22.9547 123.334 24.096 122.545 24.928C122.225 25.2693 121.894 25.6 121.553 25.92C121.212 26.24 120.86 26.496 120.497 26.688C119.153 27.4133 117.82 27.776 116.497 27.776C114.15 27.776 112.998 27.2427 113.041 26.176L113.073 25.952C113.798 26.08 114.129 26.144 114.065 26.144C116.156 26.144 117.894 25.5253 119.281 24.288C120.689 23.0507 121.393 21.3973 121.393 19.328C121.393 18.368 121.062 17.5573 120.401 16.896C119.761 16.2347 118.961 15.904 118.001 15.904C113.713 15.904 111.174 19.84 110.385 27.712C110.321 27.7973 110.172 29.3013 109.937 32.224C109.702 34.9547 109.372 36.32 108.945 36.32C108.433 36.32 108.017 34.784 107.697 31.712C107.462 29.3867 107.345 27.0613 107.345 24.736Z" fill="#BB0101"/>
</svg>
